<svg width="100" height="99" viewBox="0 0 100 99" fill="none" xmlns="http://www.w3.org/2000/svg">
<mask id="mask0_256_23628" style="mask-type:luminance" maskUnits="userSpaceOnUse" x="0" y="0" width="100" height="99">
<path d="M0 38.7056L62.1308 -0.000187853L99.529 60.0316L37.3981 98.7374L0 38.7056Z" fill="white"/>
</mask>
<g mask="url(#mask0_256_23628)">
<mask id="mask1_256_23628" style="mask-type:luminance" maskUnits="userSpaceOnUse" x="10" y="2" width="84" height="96">
<path d="M10.4861 21.6226L68.9653 2.65072L93.5373 78.3917L35.0581 97.3636L10.4861 21.6226Z" fill="white"/>
</mask>
<g mask="url(#mask1_256_23628)">
<mask id="mask2_256_23628" style="mask-type:luminance" maskUnits="userSpaceOnUse" x="10" y="2" width="84" height="96">
<path d="M10.4861 21.6226L68.9653 2.65072L93.5373 78.3917L35.0581 97.3636L10.4861 21.6226Z" fill="white"/>
</mask>
<g mask="url(#mask2_256_23628)">
<path d="M79.7738 56.2728C79.9497 55.3347 80.1012 54.3867 80.2111 53.4305C80.2691 52.9937 80.3023 52.5428 80.3425 52.1103C80.3813 51.6172 80.3796 51.1175 80.3594 50.6248C80.3336 50.1742 80.301 49.7051 80.2389 49.2658C80.1713 48.748 80.0674 48.2413 79.9618 47.7358C79.9265 47.628 79.9097 47.5133 79.8804 47.4223C79.8339 47.2783 79.8058 47.1273 79.7583 46.9816C79.6937 46.7829 79.6344 46.6036 79.5714 46.4038C79.4649 46.1378 79.3583 45.8718 79.2528 45.6075C79.1981 45.505 79.1645 45.3962 79.1097 45.2938C79.0566 45.1903 79.0089 45.1062 78.9568 45.0044C78.7184 44.5815 78.4507 44.1883 78.1477 43.808C77.8873 43.4922 77.5873 43.1897 77.2959 42.9046C77.1165 42.7227 76.9079 42.5704 76.6992 42.4182C76.5126 42.2795 76.3336 42.1565 76.153 42.0346L75.909 41.8952L76.0725 41.7228C76.2182 41.5547 76.3454 41.3935 76.491 41.2254C76.5942 41.1133 76.6726 40.987 76.7705 40.8555C76.8684 40.724 76.9102 40.6706 76.9831 40.5865C77.106 40.4075 77.2263 40.2278 77.3297 40.0541C77.4583 39.8329 77.6052 39.6048 77.7084 39.3721C77.8132 39.1384 77.9222 38.9225 78.027 38.6888C78.1318 38.455 78.2363 38.1623 78.3146 37.9155C78.4082 37.6455 78.4834 37.3824 78.5575 37.1177C78.595 36.9259 78.6563 36.7466 78.6744 36.56C78.7511 36.1753 78.7831 35.7844 78.8107 35.3757C78.834 34.8285 78.7898 34.2642 78.6984 33.7339C78.6463 33.3908 78.5352 33.048 78.423 32.7036C78.3248 32.396 78.1886 32.1007 78.0399 31.8291C77.7494 31.3044 77.3924 30.819 76.9691 30.377C76.7311 30.1338 76.4983 29.91 76.2363 29.7159C75.9953 29.5337 75.757 29.3521 75.5051 29.1926C75.2542 29.0347 74.9671 28.8881 74.6968 28.7355C74.6029 28.6871 74.5063 28.638 74.4097 28.5889C74.3148 28.5388 74.2192 28.4913 74.1295 28.4607C73.9363 28.3625 73.7333 28.2887 73.547 28.209C73.0612 28.0063 72.5822 27.8221 72.1033 27.6379C71.6955 27.4913 71.2769 27.3674 70.8556 27.2429C70.4353 27.12 69.9551 26.9958 69.5055 26.9026L69.1402 26.8206C69.6936 26.0024 70.1687 25.1282 70.5305 24.2108C71.0587 22.9394 71.3637 21.6022 71.4661 20.25C71.4812 19.865 71.4963 19.4801 71.4929 19.102C71.4942 18.8007 71.4727 18.4886 71.4404 18.1992C71.3998 17.9513 71.384 17.7176 71.3434 17.4698C71.281 16.9714 71.1646 16.4885 71.0492 16.0073C70.8974 15.4166 70.691 14.8441 70.419 14.3125C69.8806 13.2071 69.1247 12.2348 68.1875 11.4393C67.6857 11.0029 67.1411 10.6183 66.592 10.2776C66.1664 10.0146 65.7108 9.78396 65.2503 9.59283L64.4404 9.25742C64.2304 9.16516 64.0037 9.07882 63.7811 9.01029C63.5597 8.94341 63.3918 8.85674 63.1931 8.80075L62.3904 8.54276C62.1679 8.47424 61.9286 8.41164 61.6946 8.36849C61.4596 8.32371 61.2506 8.23309 61.035 8.18301C60.5844 8.08814 60.1153 8.00022 59.6602 7.94917C59.3467 7.91001 59.0467 7.84875 58.7402 7.82802L58.0249 7.77967C57.5924 7.73951 57.1359 7.74847 56.6962 7.75152C56.3956 7.7476 56.0835 7.76906 55.7697 7.79153C55.596 7.80869 55.4391 7.81993 55.2644 7.83544L54.4944 7.92586C54.2245 7.95291 53.9403 8.00472 53.6572 8.05817C53.47 8.09742 53.2795 8.12049 53.0738 8.16668L52.1905 8.21392C51.9848 8.26011 51.7666 8.33004 51.5636 8.37684C51.3579 8.42303 51.1229 8.49887 50.9004 8.55098C50.4423 8.68158 49.9848 8.80952 49.5385 8.97373C49.3203 9.04366 49.1031 9.11523 48.9043 9.17986L48.139 9.4677C47.9277 9.55607 47.7165 9.64444 47.4868 9.73974C47.2587 9.83403 47.0642 9.91648 46.8599 10.0233C46.4485 10.2363 46.0135 10.4368 45.6091 10.6682C44.7765 11.1186 43.9357 11.6105 43.1398 12.1086C42.3422 12.6078 41.5796 13.1557 40.8288 13.7373C40.4788 14.0122 40.1446 14.2796 39.8005 14.5713C39.6242 14.7085 39.497 14.8697 39.3767 15.0493C39.1868 15.3292 39.1114 15.6539 39.1398 15.9845C39.223 16.7976 39.9334 17.3862 40.7525 17.3198C41.1609 17.2885 41.5175 17.0936 41.7736 16.7702C41.912 16.6453 42.0758 16.5319 42.2142 16.4069C42.3836 16.2513 42.5777 16.1099 42.7709 15.9668C43.0128 15.7888 43.2563 15.6098 43.4788 15.437C43.7029 15.2633 43.9995 15.0671 44.2777 14.8779C44.7549 14.5624 45.2569 14.261 45.7394 13.965C45.9747 13.8275 46.2111 13.6917 46.4464 13.5542C46.7358 13.4012 47.0198 13.2288 47.3109 13.0748L47.8231 12.8081C47.9434 12.7491 48.0762 12.6663 48.2034 12.6257L49.0053 12.265L49.7891 11.9703C50.0004 11.8819 50.2245 11.8288 50.4358 11.7404C50.8863 11.594 51.3395 11.4482 51.7792 11.3246L52.5881 11.1029C52.8105 11.0508 53.0136 11.004 53.2377 10.9509C53.478 10.8945 53.7189 10.8355 53.9836 10.789L54.7071 10.6751L55.2055 10.6128C55.3623 10.6016 55.5133 10.5735 55.6702 10.5623L56.573 10.5097L57.0701 10.5074C57.2102 10.5021 57.3486 10.4978 57.4913 10.5113L58.4531 10.579L59.2709 10.6933C59.499 10.7196 59.7331 10.7628 59.9486 10.8128C60.1642 10.8629 60.3923 10.8893 60.6148 10.9578L61.2691 11.1238L61.8038 11.2915C61.9594 11.3403 62.109 11.3722 62.2521 11.4447L63.0976 11.7716L63.7503 12.0592C64.099 12.2062 64.4326 12.3762 64.7688 12.5469C65.1104 12.7371 65.4215 12.9552 65.738 13.1928C66.0001 13.3869 66.2523 13.6054 66.4833 13.8302C66.6696 14.0306 66.8532 14.2303 67.0201 14.436C67.1631 14.6291 67.2825 14.8097 67.4071 15.0097C67.5317 15.2098 67.655 15.4699 67.7493 15.6979C67.8628 15.9824 67.961 16.2899 68.055 16.5796C68.1424 16.9099 68.2113 17.2471 68.2829 17.5849C68.2984 17.7596 68.3393 17.9458 68.3549 18.1205C68.407 18.4636 68.4354 18.7942 68.4443 19.1301C68.4404 19.5514 68.4322 19.9548 68.3852 20.3688C68.3407 20.7835 68.2712 21.125 68.1777 21.5156C68.0535 21.9958 67.9055 22.4636 67.7154 22.9257C67.527 23.3869 67.3121 23.8349 67.0729 24.273C66.8784 24.5967 66.683 24.9187 66.4649 25.2299L66.0819 25.7735L65.784 26.1503C65.1343 26.0611 64.4932 25.9893 63.8379 25.9423C63.3448 25.9034 62.8398 25.8857 62.3468 25.8469C62.1424 25.8331 61.945 25.8377 61.7465 25.8407C61.5474 25.8463 61.3615 25.8256 61.1624 25.8312C60.6627 25.833 60.1462 25.8406 59.6535 25.8608C59.1607 25.8809 58.6554 25.9249 58.1669 25.9628C57.7163 25.9886 57.2585 26.0576 56.8079 26.0833C56.5963 26.1127 56.3626 26.1286 56.1332 26.1622C55.9595 26.1794 55.7664 26.2018 55.5969 26.2368C55.1045 26.316 54.6045 26.3793 54.0936 26.4654C53.5801 26.5509 53.1292 26.6383 52.648 26.7537C52.4423 26.7999 52.2139 26.8352 52.0151 26.8998L51.2383 27.0924C50.7376 27.2131 50.2491 27.3718 49.7564 27.5125C49.3157 27.6346 48.8872 27.7945 48.4535 27.935C48.2715 27.9937 48.0965 28.0709 47.9162 28.1285C47.699 28.2001 47.4824 28.269 47.289 28.3531C46.8496 28.5358 46.4034 28.7 45.9683 28.9004L45.1539 29.2849C44.9789 29.362 44.7913 29.4629 44.6222 29.5569C44.3994 29.6706 44.1756 29.7827 43.9588 29.9133L43.2383 30.3462C43.0702 30.4418 42.9123 30.572 42.7317 30.6914C42.4704 30.8747 42.21 31.0596 41.9513 31.2436C41.4071 31.66 40.9148 32.1192 40.4616 32.6268C40.2606 32.8705 40.0605 33.1157 39.8842 33.3735C39.7079 33.6313 39.5418 33.9237 39.4147 34.2055C39.3224 34.4155 39.2486 34.6186 39.1985 34.8341C39.1481 34.9907 39.1172 35.142 39.0921 35.3101C39.0477 35.6041 39.0395 35.887 39.0735 36.1754C39.1127 36.4832 39.2126 36.7897 39.3419 37.0666C39.4131 37.2248 39.5143 37.3507 39.6208 37.4961C39.7161 37.6052 39.813 37.7132 39.9208 37.7986C40.0566 37.9143 40.2135 38.0237 40.3872 38.1271C40.5118 38.2066 40.6559 38.2807 40.8115 38.3295C41.069 38.4468 41.3564 38.5318 41.621 38.6059C41.9095 38.6925 42.2035 38.737 42.5087 38.8177C42.6179 38.8431 42.72 38.85 42.8222 38.8569L43.199 38.9136C43.4703 38.9471 43.7353 38.9596 44.0164 38.9688C44.2392 38.9757 44.4631 38.9842 44.6789 38.9727C44.8942 38.9638 45.118 38.9723 45.3533 38.9554C45.6292 38.9452 45.8867 38.9419 46.1583 38.9138L46.8919 38.8346C47.3383 38.791 47.7707 38.7105 48.2117 38.6475C48.5001 38.6135 48.7589 38.5502 49.042 38.4967C49.2098 38.4628 49.4029 38.4403 49.5891 38.3994C50.0595 38.3067 50.5282 38.2151 50.9873 38.0861C51.4448 37.9581 51.9682 37.8483 52.4636 37.7081C52.9564 37.5673 53.4686 37.4213 53.957 37.2626C54.3924 37.1211 54.8387 36.9569 55.2725 36.8165C55.7062 36.676 56.105 36.4867 56.515 36.3337C56.9728 36.1441 57.4079 35.9437 57.8667 35.7557C58.077 35.6657 58.2823 35.5606 58.4936 35.4722C58.6686 35.395 58.8252 35.3248 58.9949 35.2282C59.4046 35.0162 59.8218 34.82 60.2262 34.5886C60.6794 34.3222 61.1326 34.0558 61.5805 33.7699C61.7974 33.6394 62.0153 33.5105 62.2268 33.3605L62.8131 32.9497C62.9763 32.8389 63.1207 32.7308 63.2845 32.6174L63.9697 32.0767C64.349 31.7721 64.7082 31.4572 65.0817 31.1358C65.2385 31.004 65.3852 30.8375 65.5615 30.7003C65.7362 30.5642 65.9128 30.3654 66.0931 30.1871C66.3966 29.8887 66.6817 29.5973 66.9615 29.2864L67.4895 29.374C68.2272 29.4949 68.9663 29.6764 69.7043 29.8563C70.0587 29.961 70.413 30.0658 70.7657 30.1716C71.0779 30.2707 71.396 30.3867 71.7141 30.5027C72.0849 30.6632 72.4505 30.8042 72.8035 30.9689C73.1269 31.1044 73.4269 31.2863 73.7377 31.4454C73.9184 31.5673 74.0921 31.6708 74.2516 31.799C74.4128 31.9263 74.581 32.0719 74.7491 32.2176C74.9145 32.3626 74.9973 32.4954 75.1232 32.6355C75.206 32.7683 75.3013 32.8774 75.384 33.0102C75.4684 33.142 75.5031 33.2525 75.5621 33.3728C75.6211 33.4931 75.6676 33.6371 75.7151 33.7828C75.7616 33.9268 75.7965 34.0962 75.8321 34.263C75.8671 34.4324 75.8701 34.6309 75.8757 34.8299C75.8678 35.0511 75.8593 35.2749 75.8524 35.4977C75.8205 35.6474 75.8139 35.8086 75.783 35.9599L75.6953 36.3673C75.6574 36.5001 75.6212 36.632 75.5823 36.7632C75.5461 36.895 75.4663 37.0813 75.4176 37.2368L75.4733 37.0997C75.4176 37.2368 75.3672 37.3934 75.2947 37.5365L75.0683 38.0098L74.8854 38.3082C74.8179 38.4117 74.7579 38.531 74.6725 38.6388C74.5512 38.8168 74.4099 39.0027 74.2701 39.1877C74.1304 39.3726 74.0282 39.4863 73.9136 39.6238L73.5372 40.0062C73.3668 40.1602 73.2211 40.3283 73.0465 40.4644C72.7775 40.3725 72.4891 40.2859 72.2076 40.2177C71.7273 40.0935 71.2345 39.993 70.7417 39.8926C70.5261 39.8425 70.3033 39.8356 70.0693 39.7924C69.9196 39.7605 69.7628 39.7717 69.6131 39.7398C69.4925 39.7398 69.385 39.7134 69.2644 39.7135C68.7772 39.6914 68.29 39.6694 67.7972 39.6896C67.3635 39.7094 66.9307 39.7309 66.487 39.7751C65.986 39.8369 65.5045 39.8933 65.0104 39.9735C64.5595 40.0609 64.0839 40.1341 63.6389 40.2383C63.1923 40.3435 62.7289 40.4547 62.2714 40.5826C61.8122 40.7116 61.3547 40.8395 60.9151 40.9632C60.5107 41.074 60.0953 41.2076 59.6794 41.3438C59.1968 41.5192 58.7084 41.6778 58.2381 41.8911C58.0084 41.9864 57.7793 42.0791 57.5733 42.1869L56.9576 42.5067C56.7522 42.6119 56.5532 42.7382 56.3479 42.8433C56.1125 42.9808 55.8832 43.1351 55.6653 43.264C55.4342 43.4193 55.2118 43.592 54.9877 43.7658C54.7517 43.9606 54.5335 44.1512 54.3223 44.3602C53.904 44.796 53.5742 45.3224 53.4009 45.8993C53.1976 46.5631 53.3071 47.2688 53.6747 47.8479C54.0249 48.3149 54.515 48.656 55.0922 48.7677C55.6384 48.91 56.1912 49.0117 56.7426 49.0529C57.2173 49.0986 57.6992 49.1012 58.1735 49.088C58.6495 49.0737 59.1185 49.041 59.5816 48.9915C60.0453 48.9393 60.5447 48.8786 61.0319 48.78C61.4659 48.6985 61.9053 48.6365 62.3335 48.5382C62.8038 48.4455 63.2672 48.3344 63.7307 48.2232C64.2119 48.1078 64.7004 47.9492 65.1763 47.8143C66.0145 47.563 66.8161 47.264 67.6308 46.9385C68.0896 46.7506 68.529 46.5679 68.9894 46.3789C69.4472 46.1894 69.8444 46.0011 70.2616 45.8049C70.7092 45.5807 71.1542 45.3559 71.5906 45.0954C71.988 44.8455 72.3756 44.62 72.7504 44.3592C73.0275 44.1683 73.2879 43.9834 73.5608 43.7747C73.7048 43.8488 73.842 43.9045 73.9682 43.9829C74.0632 44.033 74.1657 44.0989 74.2606 44.149C74.4106 44.24 74.5606 44.3309 74.6921 44.4288L74.9542 44.6229C75.0679 44.7251 75.1995 44.823 75.3185 44.9446L75.5749 45.1809C75.7009 45.3209 75.8258 45.4593 75.9518 45.5994C76.0767 45.7378 76.1776 45.9254 76.29 46.0875C76.3668 46.2035 76.4328 46.3423 76.4971 46.4821C76.5561 46.6024 76.622 46.7411 76.681 46.8614C76.7401 46.9817 76.7918 47.1452 76.8383 47.2892L76.9927 47.7599C77.0448 47.9824 77.1147 48.2006 77.1668 48.4231C77.2189 48.6455 77.2654 48.9102 77.3119 49.1749C77.3568 49.4406 77.3796 49.6927 77.4007 49.9459C77.4235 50.198 77.4321 50.4749 77.4549 50.727C77.4635 51.1245 77.4553 51.528 77.4208 51.9183C77.3888 52.3092 77.349 52.68 77.3154 53.0719C77.2503 53.6725 77.1683 54.279 77.0609 54.874C76.9848 55.3766 76.8784 55.8526 76.7602 56.3497C76.6613 56.7208 76.544 57.0989 76.4268 57.477C76.3095 57.8551 76.181 58.1969 76.0508 58.5398C75.9421 58.8146 75.8416 59.0662 75.7144 59.348C75.5539 59.7189 75.3777 60.0973 75.2172 60.4681C74.9127 61.1267 74.5634 61.7791 74.2167 62.4321C73.7346 63.2878 73.2341 64.1505 72.6986 64.9644C72.3885 65.4239 72.0836 65.9029 71.7735 66.3624C71.4993 66.7518 71.2199 67.1216 70.9457 67.511C70.7331 67.7799 70.5275 68.0674 70.3139 68.3347C70.072 68.6334 69.8344 68.9499 69.5741 69.2554L69.1252 69.7809C69.0204 69.894 68.9252 70.0262 68.8204 70.1393L68.0024 71.0039C67.6748 71.3514 67.3242 71.6837 66.9897 72.0127C66.7589 72.227 66.5352 72.4597 66.2877 72.6799L65.6206 73.2753C65.1853 73.6581 64.7311 74.0435 64.272 74.4137C63.9263 74.7064 63.5627 75.0035 63.1949 75.2827L63.0984 75.3542L63.037 75.4129C63.0061 75.4436 62.9573 75.4785 62.928 75.5082L62.9095 75.5151C62.8607 75.5501 62.813 75.5867 62.7642 75.6216C62.7164 75.6582 62.6676 75.6931 62.6366 75.7238L62.6073 75.7535C62.5585 75.7884 62.5107 75.825 62.4787 75.854C62.431 75.8906 62.4016 75.9203 62.3529 75.9552C62.3041 75.9902 62.2731 76.0208 62.2253 76.0574L62.196 76.0871L62.1162 76.1527C61.3232 76.7287 60.5497 77.2993 59.7271 77.846L59.0037 78.3217C58.8204 78.4404 58.6582 78.5528 58.4776 78.6721L57.2143 79.4614C56.7249 79.739 56.2348 80.0193 55.7453 80.2969C55.1366 80.6351 54.5252 80.9728 53.9095 81.2926C53.6564 81.4343 53.3974 81.5593 53.1426 81.7021L52.0388 82.2395C51.5375 82.4835 51.0256 82.6885 50.519 82.9131L49.6555 83.2735L49.2151 83.4545L49.1604 83.4727C49.1057 83.4908 49.0527 83.5079 49.0164 83.5191C48.9432 83.5442 48.8944 83.5792 48.8229 83.6032C48.7867 83.6144 48.7504 83.6256 48.7194 83.6563C48.6664 83.6734 48.6301 83.6847 48.5823 83.7212C48.5276 83.7394 48.4719 83.7559 48.4241 83.7925L48.2676 83.8627L48.1598 83.898L48.0873 83.9204L48.0688 83.9273C48.0141 83.9455 47.961 83.9626 47.9122 83.9976L47.876 84.0088L47.8213 84.0269C47.7498 84.051 47.6657 84.0988 47.5916 84.1222C47.169 84.299 46.7659 84.4704 46.3365 84.6287C45.8256 84.8354 45.3062 85.0247 44.8111 85.2239C43.9001 85.5592 42.996 85.913 42.1087 86.2609C41.2762 86.5906 40.4268 86.9263 39.5883 87.2392C38.8777 87.5089 38.1417 87.7671 37.4235 88.021C37.7589 87.3318 38.0776 86.6484 38.42 85.9776C38.8599 85.1163 39.2945 84.2354 39.7038 83.3431C40.0405 82.5939 39.7164 81.7191 38.9741 81.4008C38.2485 81.0766 37.4048 81.3701 37.0568 82.0831C36.6459 82.9764 36.2254 83.8324 35.8023 84.6879C35.3509 85.5746 34.9232 86.4738 34.4944 87.3714C34.2806 87.8211 34.0668 88.2707 33.8713 88.7134C33.7791 88.9234 33.669 89.1376 33.5767 89.3476C33.5095 89.5101 33.4298 89.6964 33.3616 89.8572C33.3194 89.9723 33.2832 90.1041 33.2443 90.2353C33.2025 90.4093 33.2055 90.6078 33.2404 90.7772C33.1334 91.3105 33.3101 91.8537 33.7093 92.2241C33.8834 92.3866 34.1171 92.4914 34.3327 92.5415C34.484 92.5724 34.6267 92.5859 34.7652 92.5816C34.8548 92.6123 34.9392 92.6234 35.0299 92.6557C35.2039 92.6976 35.3957 92.7351 35.5886 92.7743C35.929 92.8422 36.29 92.9064 36.6446 92.9495C37.1905 93.0328 37.738 93.1152 38.2727 93.1622C38.7473 93.208 39.215 93.2353 39.6897 93.281C40.2734 93.3521 40.843 93.448 41.4077 93.5833L41.6902 93.6532L41.4973 93.614L41.8626 93.696L41.8458 93.7019L41.9117 93.7201L41.9704 93.7814L41.9466 93.7689C42.536 93.9184 43.1174 94.0479 43.7108 94.1562C44.516 94.2942 45.284 93.7657 45.422 92.9605C45.561 92.1569 45.0325 91.3889 44.2289 91.2499C43.6998 91.1607 43.1843 91.0493 42.6608 90.9179L42.5781 90.9057L42.6186 90.9123L42.3134 90.8316C41.9887 90.7562 41.6581 90.6639 41.3403 90.607C40.807 90.4999 40.2664 90.436 39.7318 90.389C40.2143 90.2135 40.7153 90.0312 41.1909 89.8373C42.0782 89.4894 42.9823 89.1356 43.8696 88.7878C44.6474 88.4762 45.4549 88.1939 46.2387 87.8991C46.6672 87.7392 47.0772 87.5862 47.4997 87.4095L48.3811 87.0448L48.7186 86.9142C48.7548 86.903 48.8079 86.8859 48.8458 86.8736C48.9173 86.8496 48.9661 86.8146 49.0376 86.7906C49.0739 86.7794 49.1101 86.7681 49.1411 86.7375C49.1942 86.7203 49.2305 86.7091 49.2782 86.6725C49.3339 86.656 49.3887 86.6379 49.4364 86.6013L49.5442 86.566L49.737 86.4846C49.7917 86.4665 49.8464 86.4483 49.8758 86.4186L49.912 86.4074L49.9667 86.3893C50.0393 86.3669 50.1233 86.3191 50.1975 86.2956L50.2327 86.2828C50.8833 86.0118 51.5297 85.7229 52.1803 85.4519C52.4951 85.3104 52.8326 85.1799 53.1404 85.02L54.3536 84.4463C54.7703 84.2527 55.1747 84.0213 55.586 83.8083C55.9963 83.5936 56.3529 83.3988 56.7389 83.1743C57.5368 82.7341 58.3272 82.2781 59.1133 81.8044C59.4939 81.5604 59.8815 81.3349 60.2605 81.0919C60.6412 80.848 61.0344 80.5803 61.4276 80.3125C61.8208 80.0448 62.214 79.7771 62.6065 79.5121C62.9997 79.2444 63.3497 78.9694 63.7202 78.6908L63.7386 78.6839L63.8352 78.6124L63.8955 78.552C63.9258 78.524 63.9611 78.5112 63.9931 78.4821L64.0224 78.4525C64.0702 78.4159 64.1021 78.3869 64.1499 78.3503L64.1667 78.3444L64.2643 78.2745L64.3121 78.2379L64.343 78.2072C64.3918 78.1723 64.4212 78.1426 64.47 78.1076C64.5009 78.077 64.5487 78.0404 64.579 78.0124C64.61 77.9817 64.6578 77.9451 64.7066 77.9102L64.7234 77.9042L64.8199 77.8327C64.8519 77.8037 64.8997 77.7671 64.929 77.7374C65.311 77.4335 65.6746 77.1364 66.0549 76.8335C66.4369 76.5295 66.7641 76.2437 67.1267 75.945C67.4902 75.648 67.7937 75.3496 68.1335 75.04C68.4707 74.7299 68.7742 74.4315 69.1071 74.1035C69.4399 73.7755 69.7266 73.4831 70.0285 73.1857C70.6959 72.5287 71.3082 71.8308 71.8915 71.101C73.0813 69.6564 74.2053 68.1321 75.2118 66.5469C75.4915 66.1154 75.7469 65.674 76.0099 65.2484C76.2419 64.8535 76.4723 64.4596 76.7043 64.0647C77.1923 63.2257 77.589 62.3571 78.0052 61.4833C78.1716 61.1292 78.3294 60.7577 78.4721 60.3912C78.5808 60.1163 78.6981 59.8588 78.7901 59.5899L79.0428 58.8884C79.1911 58.4796 79.3014 58.0831 79.4075 57.6688C79.4701 57.4294 79.5495 57.1842 79.5884 56.9324C79.6862 56.6802 79.7422 56.4814 79.7738 56.2728ZM63.1214 28.9722L62.2738 29.6869L61.6331 30.1748C61.4274 30.3416 61.1921 30.4791 60.9865 30.6459C60.7798 30.8111 60.5629 30.9416 60.3444 31.0732L59.5343 31.5961L59.1299 31.8275C58.9608 31.9215 58.8165 32.0296 58.6404 32.1052L58.008 32.4309C57.8682 32.4952 57.7364 32.5796 57.5966 32.6439C57.2288 32.8025 56.8715 33 56.5037 33.1586L55.5383 33.5711L54.5865 33.9614C54.3389 34.061 54.0855 34.1438 53.831 34.2249C53.5792 34.3067 53.3132 34.4132 53.043 34.5019L52.0954 34.7895C51.7651 34.8769 51.4197 34.9873 51.0835 35.0579L49.9332 35.3307C49.7469 35.3716 49.5597 35.4108 49.3735 35.4517C49.1856 35.4936 48.9984 35.5329 48.8316 35.5685L47.7709 35.7512C47.3326 35.8149 46.8916 35.8779 46.4479 35.9221C46.2115 35.9374 45.9831 35.9727 45.7495 35.9885L45.0203 36.0239L44.2995 36.0177C44.1788 36.0177 44.0345 36.0052 43.9086 35.9858L43.602 35.9651L43.0561 35.8818C42.9302 35.8623 42.7799 35.833 42.6471 35.7952L42.5406 35.7704C42.3656 35.727 42.1863 35.6657 42.0059 35.6027C42.0126 35.5622 42.0366 35.5131 42.0432 35.4725C42.0923 35.3759 42.1229 35.2863 42.172 35.1897C42.2445 35.0467 42.3424 34.9151 42.4403 34.7836C42.579 34.597 42.7425 34.4246 42.9076 34.2512C43.1492 34.0142 43.3983 33.7929 43.6696 33.5853C44.0206 33.312 44.3834 33.0723 44.7582 32.8115C44.891 32.7288 45.0238 32.646 45.1751 32.5563L45.508 32.3489L45.9839 32.0934C46.1167 32.0107 46.2749 31.9394 46.4131 31.8762L47.2822 31.4736C47.6012 31.3499 47.9344 31.2015 48.2535 31.0779C48.6088 30.943 48.9826 30.8012 49.3448 30.6848C49.706 30.5668 50.0992 30.4197 50.5027 30.3073L51.5271 30.0151C52.0808 29.8772 52.6352 29.7367 53.1771 29.62C53.4358 29.5567 53.7005 29.5101 53.9609 29.4458L54.9421 29.267L54.8452 29.2796C55.2246 29.2162 55.6234 29.1476 56.0071 29.1021C56.4886 29.0456 56.9896 28.9839 57.4712 28.9275C57.9511 28.8721 58.458 28.8271 58.9439 28.7885C59.3707 28.7502 59.7867 28.7347 60.202 28.7218L60.1588 28.7145C60.4963 28.7046 60.8322 28.6956 61.1582 28.7111C61.6022 28.7258 62.0403 28.7238 62.4685 28.7462C62.7081 28.7471 62.9546 28.7665 63.1827 28.7929L63.1214 28.9722ZM56.2505 46.7941C56.2565 46.8109 56.2439 46.8346 56.2551 46.8709L56.2505 46.7941ZM68.813 43.3772C68.4336 43.5612 68.0473 43.7267 67.6617 43.8896C67.0289 44.1563 66.4119 44.4155 65.7668 44.6443C65.4125 44.7808 65.0319 44.9042 64.6696 45.0206C64.3631 45.1205 64.0549 45.2214 63.7289 45.3266C63.1567 45.4714 62.5856 45.6178 62.0074 45.7458C61.4283 45.8721 60.839 45.9638 60.2734 46.068C59.8703 46.1188 59.484 46.1637 59.0808 46.2146C58.714 46.2542 58.3587 46.2684 58.0043 46.2843C57.7637 46.2817 57.5241 46.2807 57.3003 46.2722C57.1196 46.2709 56.9515 46.2459 56.7893 46.2376L56.9163 46.1381C57.2076 45.9225 57.5026 45.7273 57.8061 45.5496C58.107 45.3712 58.3786 45.2225 58.6749 45.088C58.9703 44.9518 59.2293 44.8269 59.5256 44.6924C59.9666 44.5087 60.406 44.326 60.8651 44.1971C61.3226 44.0691 61.7873 43.898 62.2448 43.77C62.9254 43.5873 63.607 43.4063 64.3107 43.2387C64.9436 43.0926 65.5692 42.9897 66.2142 42.8815C66.5211 42.8406 66.8457 42.7954 67.1589 42.7756C67.4727 42.7531 67.7426 42.726 68.0202 42.7148C68.296 42.7045 68.5604 42.7196 68.8248 42.7348C69.0897 42.7472 69.3963 42.768 69.6844 42.7956L69.9184 42.8388C69.5084 42.9918 69.1755 43.1991 68.813 43.3772ZM33.8596 89.3558L34.0102 89.2688C33.9251 89.3149 33.8596 89.3558 33.7923 89.3977L33.8596 89.3558ZM41.9941 93.7939L41.9536 93.7873L41.9704 93.7814L41.9941 93.7939ZM41.7479 93.7129C41.7732 93.7244 41.8148 93.7326 41.8385 93.7451L41.857 93.7382L41.8332 93.7257L41.7479 93.7129Z" fill="#1E429F"/>
</g>
</g>
</g>
</svg>
